<svg xmlns:xlink="http://www.w3.org/1999/xlink" class="left-icon" xmlns="http://www.w3.org/2000/svg" viewBox="0 0 16 16" data-t="twitter-svg" aria-labelledby="twitter-svg" aria-hidden="true" role="img" width="18"  height="18" ><title id="twitter-svg">Twitter</title><path d="M5,14.5a9.28,9.28,0,0,0,9.34-9.34c0-.14,0-0.28,0-0.42A6.68,6.68,0,0,0,16,3a6.55,6.55,0,0,1-1.89.52,3.29,3.29,0,0,0,1.44-1.82,6.58,6.58,0,0,1-2.08.8,3.29,3.29,0,0,0-5.59,3A9.32,9.32,0,0,1,1.11,2.1a3.29,3.29,0,0,0,1,4.38A3.26,3.26,0,0,1,.64,6.07s0,0,0,0A3.28,3.28,0,0,0,3.28,9.33a3.28,3.28,0,0,1-1.48.06,3.29,3.29,0,0,0,3.07,2.28A6.59,6.59,0,0,1,.78,13.07,6.68,6.68,0,0,1,0,13,9.29,9.29,0,0,0,5,14.5" fill="#A0A0A0"></path></svg>